<?xml version="1.0" encoding="UTF-8" standalone="no"?>
<!-- Created with Inkscape (http://www.inkscape.org/) -->

<svg
   version="1.1"
   id="svg11"
   width="3100"
   height="3100"
   viewBox="0 0 3100.0001 3100"
   sodipodi:docname="arcavigi_interactive_logo_no_shadow.svg"
   inkscape:version="1.2.2 (732a01da63, 2022-12-09)"
   inkscape:export-filename="arcavigi_interactive_logo_no_shadow.png"
   inkscape:export-xdpi="96"
   inkscape:export-ydpi="96"
   xmlns:inkscape="http://www.inkscape.org/namespaces/inkscape"
   xmlns:sodipodi="http://sodipodi.sourceforge.net/DTD/sodipodi-0.dtd"
   xmlns="http://www.w3.org/2000/svg"
   xmlns:svg="http://www.w3.org/2000/svg">
  <defs
     id="defs15" />
  <sodipodi:namedview
     id="namedview13"
     pagecolor="#505050"
     bordercolor="#ffffff"
     borderopacity="1"
     inkscape:showpageshadow="0"
     inkscape:pageopacity="0"
     inkscape:pagecheckerboard="1"
     inkscape:deskcolor="#505050"
     showgrid="false"
     inkscape:zoom="0.19898276"
     inkscape:cx="75.383415"
     inkscape:cy="1492.5916"
     inkscape:window-width="1920"
     inkscape:window-height="1009"
     inkscape:window-x="-8"
     inkscape:window-y="-8"
     inkscape:window-maximized="1"
     inkscape:current-layer="svg11" />
  <rect
     style="fill:#000000;fill-opacity:1;stroke:none;stroke-width:5;stroke-linecap:round;stroke-linejoin:round;stroke-dasharray:none;stroke-opacity:1"
     id="rect1809"
     width="3000"
     height="3000"
     x="50"
     y="50"
     rx="200"
     ry="200" />
  <g
     id="g2806"
     transform="translate(31.80567,131.29653)">
    <g
       id="g1476"
       transform="matrix(7.4300838,0,0,7.4300838,-3016.6179,-4652.7371)"
       style="display:inline">
      <path
         style="display:inline;fill:#00f3d3;fill-opacity:1;stroke:#00f3d3;stroke-width:1.89;stroke-linecap:round;stroke-linejoin:round;stroke-dasharray:none;stroke-opacity:1"
         d="m 488.10762,803.30452 c 0,0 136.16495,-54.80891 221.75288,-3.14097 27.62507,16.67677 27.20595,32.74874 13.72016,24.68201 -10.20264,-7.03846 -11.07464,-23.02205 -46.92862,-34.87473 -44.69295,-14.77468 -125.51065,-8.79608 -188.54442,13.33369 z m 26.35192,2.49208 c 0,0 74.84568,49.97285 115.16061,50.48696 75.64464,0.96465 102.11166,-30.00805 102.11166,-30.00805 -1.31802,2.84378 -15.80579,-9.48232 -19.7317,-14.51677 0.42385,-0.52982 8.65307,11.11586 3.66756,16.79918 -1.64066,1.87031 -8.2672,8.27032 -25.74666,12.70556 C 626.00892,864.4338 572.22966,840.5395 514.45954,805.7966 Z"
         id="path1177"
         sodipodi:nodetypes="cscsccsccscc" />
      <path
         style="fill:#00f3d3;fill-opacity:1;stroke:#00f3d3;stroke-width:1.89;stroke-linecap:round;stroke-linejoin:round;stroke-dasharray:none;stroke-opacity:1"
         d="m 593.45347,779.06189 c -5.78742,0.45392 -7.05926,47.85828 33.85772,48.44628 26.26295,0.37742 59.59744,-33.65259 59.59744,-33.65259 -10.33201,11.02669 -38.98182,31.32712 -64.58637,30.07017 -11.5149,-1.01611 -17.61584,-7.702 -21.1671,-13.89056 -3.60537,-6.28285 -6.46478,-14.05169 -7.48598,-18.39436 -1.70832,-7.26467 -0.21571,-12.57894 -0.21571,-12.57894 z"
         id="path1258"
         sodipodi:nodetypes="csccssc" />
    </g>
    <g
       id="g1743"
       style="display:inline"
       transform="translate(603.06732,1120.7001)">
      <path
         style="fill:none;fill-opacity:1;stroke:#00f3d3;stroke-width:5;stroke-linecap:round;stroke-linejoin:round;stroke-dasharray:none;stroke-opacity:1"
         d="m 1026.9209,143.00339 c -4.1517,24.93681 -5.8384,31.74071 0,60.84005 m 0,-60.84005 c 4.1516,24.93681 5.8384,31.74071 0,60.84005"
         id="path1579"
         sodipodi:nodetypes="cccc" />
      <g
         id="g1736">
        <path
           style="fill:none;fill-opacity:1;stroke:#00f3d3;stroke-width:5;stroke-linecap:round;stroke-linejoin:round;stroke-dasharray:none;stroke-opacity:1"
           d="m 1076.9209,298.00339 -50,-75 v -80 m -50.00002,0 50.00002,80 50,-80 m -100.00002,0 50.00002,-80.000003 50,80.000003 m -50,80 c -22.0802,20.86025 -37.97604,46.44971 -50.00002,75 z m 0,0 c 22.0802,20.86025 37.976,46.44971 50,75 z"
           id="path1318"
           sodipodi:nodetypes="ccccccccccccccc" />
        <path
           style="fill:none;fill-opacity:1;stroke:#00f3d3;stroke-width:5;stroke-linecap:round;stroke-linejoin:round;stroke-dasharray:none;stroke-opacity:1"
           d="m 1026.9209,223.00339 c 27.0122,-34.57795 51.0433,-66.87628 50,-80 m -50,80 c -27.01222,-34.57795 -51.04336,-66.87628 -50.00002,-80"
           id="path1550"
           sodipodi:nodetypes="cccc" />
        <path
           style="fill:none;fill-opacity:1;stroke:#00f3d3;stroke-width:5;stroke-linecap:round;stroke-linejoin:round;stroke-dasharray:none;stroke-opacity:1"
           d="m 976.92088,143.00339 c 12.57576,-19.89377 31.89022,-30.81109 37.49472,-60.000003 m 62.5053,60.000003 c -12.5758,-19.89377 -31.8903,-30.81109 -37.4947,-60.000003"
           id="path1686"
           sodipodi:nodetypes="cccc" />
      </g>
    </g>
  </g>
</svg>
