<svg xmlns="http://www.w3.org/2000/svg" xmlns:xlink="http://www.w3.org/1999/xlink" width="256" height="256" viewBox="0 0 67.733 67.733"><defs><filter id="g" width="1.234" height="1.295" x="-.111" y="-.138" style="color-interpolation-filters:sRGB"><feGaussianBlur stdDeviation="1.543"/></filter><filter id="j" width="1.186" height="1.23" x="-.093" y="-.115" style="color-interpolation-filters:sRGB"><feGaussianBlur stdDeviation="1.181"/></filter><filter id="e" width="1.076" height="1.094" x="-.038" y="-.047" style="color-interpolation-filters:sRGB"><feGaussianBlur stdDeviation=".488"/></filter><filter id="h" width="1.234" height="1.295" x="-.111" y="-.138" style="color-interpolation-filters:sRGB"><feGaussianBlur stdDeviation="1.543"/></filter><filter id="k" width="1.186" height="1.23" x="-.093" y="-.115" style="color-interpolation-filters:sRGB"><feGaussianBlur stdDeviation="1.181"/></filter><filter id="f" width="1.076" height="1.094" x="-.038" y="-.047" style="color-interpolation-filters:sRGB"><feGaussianBlur stdDeviation=".488"/></filter><filter id="d" width="1.062" height="1.125" x="-.031" y="-.063" style="color-interpolation-filters:sRGB"><feGaussianBlur stdDeviation=".659"/></filter><filter id="i" width="1.203" height="1.411" x="-.101" y="-.206" style="color-interpolation-filters:sRGB"><feGaussianBlur stdDeviation="2.084"/></filter><filter id="l" width="1.15" height="1.304" x="-.075" y="-.152" style="color-interpolation-filters:sRGB"><feGaussianBlur stdDeviation="1.596"/></filter><filter id="c" width="3.4" height="3.4" x="-1.2" y="-1.2" style="color-interpolation-filters:sRGB"><feGaussianBlur stdDeviation="26.458"/></filter><linearGradient id="a"><stop offset="0" style="stop-color:#00fffc;stop-opacity:1"/><stop offset="1" style="stop-color:#006eff;stop-opacity:0"/></linearGradient><linearGradient xlink:href="#a" id="b" x1="7.534" x2="60.199" y1="60.199" y2="7.534" gradientUnits="userSpaceOnUse"/></defs><path d="M0 0h67.733v67.733H0z" style="display:inline;fill:#000;fill-opacity:1;stroke:none;stroke-width:.264583;stroke-linecap:round;stroke-linejoin:round;stroke-miterlimit:6"/><path d="M0 0h67.733v67.733H0z" style="display:inline;fill:url(#b);fill-opacity:1;stroke:none;stroke-width:.264583;stroke-linecap:round;stroke-linejoin:round;stroke-miterlimit:6;filter:url(#filter14411);opacity:.60744986" transform="matrix(1.2861 0 0 1.2861 -9.69 -9.69)"/><circle cx="33.867" cy="33.867" r="26.458" style="display:inline;fill:#0ff;fill-opacity:.1;stroke:none;stroke-width:.529167;stroke-linecap:round;stroke-linejoin:round;stroke-miterlimit:6;stroke-dasharray:none;stroke-dashoffset:0;stroke-opacity:1;filter:url(#c)"/><g style="display:inline;fill:none;fill-opacity:.1"><path d="m6.615 20.152 26.9 26.9h.703l26.9-26.9" style="display:inline;fill:none;fill-opacity:.1;stroke:#fff;stroke-width:.198437;stroke-linecap:round;stroke-linejoin:round;stroke-miterlimit:6;stroke-dasharray:none;stroke-dashoffset:0;stroke-opacity:1;filter:url(#d)"/><path d="M33.515 47.052c20.49-14.963-13.114-13.114-26.9-26.9" style="display:inline;mix-blend-mode:normal;fill:none;fill-opacity:.1;stroke:#fff;stroke-width:.198437;stroke-linecap:round;stroke-linejoin:round;stroke-miterlimit:6;stroke-dasharray:none;stroke-dashoffset:0;stroke-opacity:1;filter:url(#e)"/><path d="M33.867 33.867c20.49-14.963-13.115-13.115-26.9-26.9" style="display:inline;mix-blend-mode:normal;fill:none;fill-opacity:.1;stroke:#fff;stroke-width:.198437;stroke-linecap:round;stroke-linejoin:round;stroke-miterlimit:6;stroke-dasharray:none;stroke-dashoffset:0;stroke-opacity:1;filter:url(#f)" transform="matrix(-1 0 0 1 68.085 13.185)"/><path d="M33.515 47.052c20.49-14.963-13.114-13.114-26.9-26.9" style="display:inline;mix-blend-mode:normal;fill:none;fill-opacity:.1;stroke:#0ff;stroke-width:1.05833;stroke-linecap:round;stroke-linejoin:round;stroke-miterlimit:6;stroke-dasharray:1.05833,3.175;stroke-dashoffset:0;stroke-opacity:1;filter:url(#g)"/><path d="M33.867 33.867c20.49-14.963-13.115-13.115-26.9-26.9" style="display:inline;fill:none;fill-opacity:.1;stroke:#0ff;stroke-width:1.05833;stroke-linecap:round;stroke-linejoin:round;stroke-miterlimit:6;stroke-dasharray:1.05833,3.17499;stroke-dashoffset:0;stroke-opacity:1;filter:url(#h)" transform="matrix(-1 0 0 1 68.085 13.185)"/><path d="m6.615 20.152 26.9 26.9h.703l26.9-26.9" style="display:inline;fill:none;fill-opacity:.1;stroke:#0ff;stroke-width:1.05833;stroke-linecap:round;stroke-linejoin:round;stroke-miterlimit:6;stroke-dasharray:1.05833,3.175;stroke-dashoffset:0;stroke-opacity:1;filter:url(#i)"/><path d="M33.515 47.052c20.49-14.963-13.114-13.114-26.9-26.9" style="display:inline;mix-blend-mode:normal;fill:none;fill-opacity:.1;stroke:#0ff;stroke-width:.529167;stroke-linecap:round;stroke-linejoin:round;stroke-miterlimit:6;stroke-dasharray:none;stroke-dashoffset:0;stroke-opacity:1;filter:url(#j)"/><path d="M33.867 33.867c20.49-14.963-13.115-13.115-26.9-26.9" style="display:inline;mix-blend-mode:normal;fill:none;fill-opacity:.1;stroke:#0ff;stroke-width:.529167;stroke-linecap:round;stroke-linejoin:round;stroke-miterlimit:6;stroke-dasharray:none;stroke-dashoffset:0;stroke-opacity:1;filter:url(#k)" transform="matrix(-1 0 0 1 68.085 13.185)"/><path d="m6.615 20.417 26.9 26.9h.703l26.9-26.9" style="display:inline;fill:none;fill-opacity:.1;stroke:#0ff;stroke-width:.529167;stroke-linecap:round;stroke-linejoin:round;stroke-miterlimit:6;stroke-dasharray:none;stroke-dashoffset:0;stroke-opacity:1;filter:url(#l)"/></g></svg>